# xmcd
#
# Track frame offsets:
#	150
#	13875
#	29055
#	47150
#	58093
#	72547
#	85587
#	104991
#	116780
#	128281
#	141256
#	154717
#
# Disc length: 2338 seconds
#
# Revision: 0
# Processed by: cddbd v1.5.2PL0 Copyright (c) Steve Scherf et al.
# Submitted via: audiograbber 1.83.01
#
DISCID=b009200c
DTITLE=Kenny Wise - Trouble With A Capital T
DYEAR=2008
DGENRE=Modern Country
TTITLE0=Mississippi Queen
TTITLE1=I Shouldn't Love You
TTITLE2=I'm Not Through Loving You
TTITLE3=Trouble With A Capital T
TTITLE4=Sheltered In The Arms Of God
TTITLE5=Redneck Angel
TTITLE6=The Bottom Of The Bottle
TTITLE7=Don't Let The Door Hitcha
TTITLE8=Saturday Night Cat Fight
TTITLE9=Blue Moon Of Kentucky
TTITLE10=If The House Is Rockin'
TTITLE11=He Sent You
EXTD=
EXTT0=
EXTT1=
EXTT2=
EXTT3=
EXTT4=
EXTT5=
EXTT6=
EXTT7=
EXTT8=
EXTT9=
EXTT10=
EXTT11=
PLAYORDER=
